<?xml version="1.0" encoding="utf-8"?>
<!-- Generator: Adobe Illustrator 28.0.0, SVG Export Plug-In . SVG Version: 6.00 Build 0)  -->
<svg version="1.1" id="图层_1" xmlns="http://www.w3.org/2000/svg" xmlns:xlink="http://www.w3.org/1999/xlink" x="0px"
	y="0px" viewBox="0 0 500 500" style="enable-background:new 0 0 500 500;" xml:space="preserve">
	<path style="fill:#fff;"
		d="M250,460c-115.79,0-210-94.21-210-210c0-115.79,94.21-210,210-210c115.79,0,210,94.21,210,210
	C460,365.79,365.79,460,250,460z M250,60C145.23,60,60,145.23,60,250s85.23,190,190,190s190-85.23,190-190S354.77,60,250,60z" />
	<path style="fill:#fff;" d="M239.24,333.94L133.92,228.61c-5.86-5.86-5.86-15.36,0-21.21l0,0c5.86-5.86,15.36-5.86,21.21,0
	l84.12,84.12c5.86,5.86,15.35,5.86,21.21,0l84.6-84.53c5.86-5.86,15.36-5.85,21.21,0.01l0,0c5.86,5.86,5.85,15.36-0.01,21.21
	L260.45,333.94C254.59,339.8,245.1,339.8,239.24,333.94z" />
</svg>